<svg width="1200" height="900" viewBox="0 0 1200 900" fill="none" xmlns="http://www.w3.org/2000/svg">
  <rect width="1200" height="900" rx="40" fill="#F3F7FF"/>
  <rect x="90" y="130" width="1020" height="640" rx="30" fill="white" stroke="#DCE8FF" stroke-width="3"/>
  <rect x="140" y="190" width="300" height="180" rx="24" fill="#0B3C5D"/>
  <rect x="170" y="235" width="110" height="18" rx="9" fill="#6FCF97"/>
  <rect x="170" y="268" width="180" height="14" rx="7" fill="#DFF3EC"/>
  <rect x="170" y="296" width="150" height="14" rx="7" fill="#DFF3EC"/>
  <rect x="470" y="188" width="320" height="220" rx="24" fill="#F8FAFC" stroke="#E4E9F0" stroke-width="2"/>
  <rect x="500" y="220" width="120" height="14" rx="7" fill="#0066CC"/>
  <rect x="500" y="250" width="220" height="12" rx="6" fill="#BFD7F5"/>
  <rect x="500" y="276" width="200" height="12" rx="6" fill="#BFD7F5"/>
  <rect x="500" y="302" width="140" height="12" rx="6" fill="#BFD7F5"/>
  <rect x="140" y="420" width="650" height="240" rx="24" fill="#F8FAFC" stroke="#E4E9F0" stroke-width="2"/>
  <rect x="178" y="468" width="180" height="120" rx="18" fill="#ECF6FF"/>
  <rect x="388" y="468" width="180" height="120" rx="18" fill="#ECF6FF"/>
  <rect x="598" y="468" width="150" height="120" rx="18" fill="#ECF6FF"/>
  <rect x="840" y="220" width="200" height="180" rx="24" fill="#00A6A6"/>
  <path d="M892 324C892 293.072 917.072 268 948 268H948.5C979.428 268 1004.5 293.072 1004.5 324V334H892V324Z" fill="#F5F7FA" fill-opacity="0.35"/>
  <rect x="900" y="280" width="74" height="10" rx="5" fill="#F5F7FA" fill-opacity="0.75"/>
  <rect x="900" y="302" width="96" height="10" rx="5" fill="#F5F7FA" fill-opacity="0.6"/>
</svg>
